# xmcd
#
# Track frame offsets: 
#        150
#        16436
#        39766
#        60334
#        74472
#        90453
#        111282
#        129329
#        152611
#        191785
#        209457
#
# Disc length: 3074 seconds
#
# Revision: 0
# Processed by: cddbd v1.5.2PL0 Copyright (c) Steve Scherf et al.
# Submitted via: ExactAudioCopy v1.0b1
#
DISCID=8d0c000b
DTITLE=The Black Lillies - 100 Miles Of Wreckage
DYEAR=2010
DGENRE=Country
TTITLE0=Two Hearts Down
TTITLE1=The Arrow
TTITLE2=Same Mistakes
TTITLE3=Three In The Morning
TTITLE4=Nobody's Business
TTITLE5=Shepherd's Song
TTITLE6=Peach Pickin'
TTITLE7=Soul Of Man
TTITLE8=Tall Trees
TTITLE9=Ain't My Fault
TTITLE10=Go To Sleep
EXTD=
EXTT0=
EXTT1=
EXTT2=
EXTT3=
EXTT4=
EXTT5=
EXTT6=
EXTT7=
EXTT8=
EXTT9=
EXTT10=
PLAYORDER=
